*
G04 Mass Parameters ***
*
G04 Image ***
*
%INF:\ELECTRONIC\2015\PROJECTS\40. MOUSE WITH KEYBOARD\SCH\VER1\M&KB.SST*%
%ICAS*%
%MOIN*%
%IPPOS*%
%ASAXBY*%
G74*%FSLAN2X34Y34*%
*
G04 Aperture Definitions ***
*
%ADD10C,0.0520*%
%ADD11R,0.0520X0.0520*%
%ADD12C,0.0620*%
%ADD13C,0.0550*%
%ADD14R,0.0550X0.0550*%
%ADD15C,0.0450*%
%ADD16R,0.0450X0.0450*%
%ADD17R,0.1400X0.0600*%
%ADD18R,0.0600X0.1400*%
%ADD19C,0.0710*%
%ADD20R,0.0710X0.0710*%
%ADD21C,0.0580*%
%ADD22R,0.0580X0.0580*%
%ADD23C,0.0250*%
%ADD24C,0.0550*%
%ADD25C,0.0670*%
%ADD26C,0.0600*%
%ADD27C,0.0080*%
%ADD28C,0.0100*%
%ADD29C,0.0500*%
*
G04 Plot Data ***
*
G54D27*
G01X0038013Y0029688D02*
X0038069Y0029633D01*
X0038180D01*
X0038235Y0029688D01*
Y0029744D01*
X0038124Y0029855D01*
X0038235Y0029966D01*
X0038013D01*
X0037825D02*
Y0029688D01*
X0037798Y0029633D01*
X0037631D01*
X0037603Y0029688D01*
Y0029966D01*
X0012139Y0017058D02*
X0011917D01*
X0012139Y0017280D01*
Y0017335D01*
X0012112Y0017391D01*
X0011945D01*
X0011917Y0017335D01*
X0011729Y0017113D02*
X0011702Y0017058D01*
X0011535D01*
X0011507Y0017113D01*
Y0017335D01*
X0011535Y0017391D01*
X0011702D01*
X0011729Y0017335D01*
X0014615Y0031682D02*
X0014504D01*
X0014559D02*
Y0032016D01*
X0014504Y0031960D01*
X0014260Y0032016D02*
Y0031738D01*
X0014233Y0031682D01*
X0014066D01*
X0014038Y0031738D01*
Y0032016D01*
X0004709Y0010933D02*
X0004598D01*
X0004653D02*
Y0011266D01*
X0004598Y0011210D01*
X0004271Y0011099D02*
X0004354Y0010933D01*
X0004132Y0011099D02*
X0004299D01*
X0004354Y0011155D01*
Y0011210D01*
X0004299Y0011266D01*
X0004132D01*
Y0010933D01*
X0014945Y0003224D02*
X0015112D01*
X0015139Y0003169D01*
Y0003113D01*
X0015112Y0003058D01*
X0014945D01*
X0014917Y0003113D01*
Y0003169D01*
X0015028Y0003391D01*
X0014729Y0003113D02*
X0014702Y0003058D01*
X0014535D01*
X0014507Y0003113D01*
Y0003335D01*
X0014535Y0003391D01*
X0014702D01*
X0014729Y0003335D01*
X0027970Y0010944D02*
X0027748D01*
X0027859Y0011166D01*
X0027915D01*
Y0010833D01*
X0027560Y0011166D02*
Y0010888D01*
X0027533Y0010833D01*
X0027366D01*
X0027338Y0010888D01*
Y0011166D01*
X0007959Y0021558D02*
X0007848D01*
X0007903D02*
Y0021891D01*
X0007848Y0021835D01*
X0007410Y0021558D02*
Y0021891D01*
X0007382Y0021558D02*
X0007549D01*
X0007604Y0021669D01*
Y0021780D01*
X0007549Y0021891D01*
X0007382D01*
X0003139Y0023169D02*
X0002917D01*
X0003028Y0023391D01*
X0003084D01*
Y0023058D01*
X0002729Y0023113D02*
X0002702Y0023058D01*
X0002535D01*
X0002507Y0023113D01*
Y0023335D01*
X0002535Y0023391D01*
X0002702D01*
X0002729Y0023335D01*
X0010542Y0003988D02*
X0010598Y0003933D01*
X0010709D01*
X0010764Y0003988D01*
Y0004044D01*
X0010653Y0004155D01*
X0010764Y0004266D01*
X0010542D01*
X0010271Y0004099D02*
X0010354Y0003933D01*
X0010132Y0004099D02*
X0010299D01*
X0010354Y0004155D01*
Y0004210D01*
X0010299Y0004266D01*
X0010132D01*
Y0003933D01*
X0044973Y0016058D02*
X0045139Y0016391D01*
X0044917D01*
X0044729Y0016113D02*
X0044702Y0016058D01*
X0044535D01*
X0044507Y0016113D01*
Y0016335D01*
X0044535Y0016391D01*
X0044702D01*
X0044729Y0016335D01*
X0006764Y0008683D02*
X0006542D01*
X0006764Y0008905D01*
Y0008960D01*
X0006737Y0009016D01*
X0006570D01*
X0006542Y0008960D01*
X0006160Y0008683D02*
Y0009016D01*
X0006132Y0008683D02*
X0006299D01*
X0006354Y0008794D01*
Y0008905D01*
X0006299Y0009016D01*
X0006132D01*
X0020709Y0002808D02*
X0020598D01*
X0020653D02*
Y0003141D01*
X0020598Y0003085D01*
X0020243Y0002808D02*
Y0002974D01*
X0020354Y0003141D02*
X0020271Y0002974D01*
X0020215D01*
X0020132Y0003141D01*
X0011542Y0009738D02*
X0011598Y0009683D01*
X0011709D01*
X0011764Y0009738D01*
Y0009794D01*
X0011653Y0009905D01*
X0011764Y0010016D01*
X0011542D01*
X0011354Y0009738D02*
X0011327Y0009683D01*
X0011160D01*
X0011132Y0009738D01*
Y0009960D01*
X0011160Y0010016D01*
X0011327D01*
X0011354Y0009960D01*
X0025709Y0030933D02*
X0025598D01*
X0025653D02*
Y0031266D01*
X0025598Y0031210D01*
X0025354Y0030988D02*
X0025327Y0030933D01*
X0025160D01*
X0025132Y0030988D01*
Y0031210D01*
X0025160Y0031266D01*
X0025327D01*
X0025354Y0031210D01*
X0004516Y0029566D02*
X0004272D01*
X0004516Y0029810D01*
Y0029871D01*
X0004485Y0029932D01*
X0004302D01*
X0004272Y0029871D01*
X0004081Y0029932D02*
Y0029627D01*
X0004050Y0029566D01*
X0003867D01*
X0003837Y0029627D01*
Y0029932D01*
X0018748Y0020888D02*
X0018776Y0020833D01*
X0018943D01*
X0018970Y0020888D01*
Y0020999D01*
X0018915Y0021055D01*
X0018748D01*
Y0021166D01*
X0018970D01*
X0018560D02*
Y0020888D01*
X0018533Y0020833D01*
X0018366D01*
X0018338Y0020888D01*
Y0021166D01*
X0018764Y0011933D02*
X0018542D01*
X0018764Y0012155D01*
Y0012210D01*
X0018737Y0012266D01*
X0018570D01*
X0018542Y0012210D01*
X0018271Y0012099D02*
X0018354Y0011933D01*
X0018132Y0012099D02*
X0018299D01*
X0018354Y0012155D01*
Y0012210D01*
X0018299Y0012266D01*
X0018132D01*
Y0011933D01*
X0002917Y0008113D02*
X0002945Y0008058D01*
X0003112D01*
X0003139Y0008113D01*
Y0008224D01*
X0003084Y0008280D01*
X0002917D01*
Y0008391D01*
X0003139D01*
X0002729Y0008113D02*
X0002702Y0008058D01*
X0002535D01*
X0002507Y0008113D01*
Y0008335D01*
X0002535Y0008391D01*
X0002702D01*
X0002729Y0008335D01*
X0017050Y0030750D02*
Y0029300D01*
X0012950D01*
Y0030750D01*
X0013700Y0031500D01*
X0016300D01*
X0017050Y0030750D01*
X0006500Y0010000D02*
X0006125D01*
Y0010625D02*
Y0009375D01*
X0003875D01*
Y0010625D01*
X0006125D01*
X0003500Y0010000D02*
X0003875D01*
X0027000Y0006500D02*
Y0007500D01*
Y0009500D01*
X0048000D01*
Y0004500D01*
X0027000D01*
Y0006500D01*
X0027250D01*
Y0007500D01*
X0027000D01*
X0007100Y0020600D02*
X0008900D01*
Y0021400D01*
X0007100D01*
Y0020600D01*
X0007600D02*
Y0021400D01*
X0006450Y0021000D02*
X0007100D01*
X0009550D02*
X0008900D01*
X0012500Y0003000D02*
X0012125D01*
Y0003625D02*
Y0002375D01*
X0009875D01*
Y0003625D01*
X0012125D01*
X0009500Y0003000D02*
X0009875D01*
X0019000Y0001250D02*
X0023000D01*
Y0002750D01*
X0019000D01*
Y0001250D01*
X0011500Y0026500D02*
Y0028500D01*
X0003500D01*
Y0026500D01*
X0011500D01*
X0003500Y0028000D02*
X0003750D01*
Y0027000D01*
X0003500D01*
X0018000Y0016500D02*
Y0017500D01*
Y0019500D01*
X0039000D01*
Y0014500D01*
X0018000D01*
Y0016500D01*
X0018250D01*
Y0017500D01*
X0018000D01*
X0020500Y0011000D02*
X0020125D01*
Y0011625D02*
Y0010375D01*
X0017875D01*
Y0011625D01*
X0020125D01*
X0017500Y0011000D02*
X0017875D01*
X0037375Y0027000D02*
Y0028000D01*
Y0028500D01*
X0044625D01*
Y0026500D01*
X0037375D01*
Y0027000D01*
X0037625D01*
Y0028000D01*
X0037375D01*
X0017050Y0030050D02*
X0016550D01*
X0012950D02*
X0013450D01*
G01X0014500Y0002000D02*
G03X0015500Y0001000I0001000J0000000D01*
G03X0016500Y0002000I0000000J0001000D01*
G03X0015500Y0003000I0001000J0000000D01*
G03X0014500Y0002000I0000000J0001000D01*
G03X0015500Y0001000I0001000J0000000D01*
G03X0016500Y0002000I0000000J0001000D01*
G03X0015500Y0003000I0001000J0000000D01*
G03X0014500Y0002000I0000000J0001000D01*
G01X0002500Y0022000D02*
G03X0003500Y0021000I0001000J0000000D01*
G03X0004500Y0022000I0000000J0001000D01*
G03X0003500Y0023000I0001000J0000000D01*
G03X0002500Y0022000I0000000J0001000D01*
G03X0003500Y0021000I0001000J0000000D01*
G03X0004500Y0022000I0000000J0001000D01*
G03X0003500Y0023000I0001000J0000000D01*
G03X0002500Y0022000I0000000J0001000D01*
G01X0044500Y0015000D02*
G03X0045500Y0014000I0001000J0000000D01*
G03X0046500Y0015000I0000000J0001000D01*
G03X0045500Y0016000I0001000J0000000D01*
G03X0044500Y0015000I0000000J0001000D01*
G03X0045500Y0014000I0001000J0000000D01*
G03X0046500Y0015000I0000000J0001000D01*
G03X0045500Y0016000I0001000J0000000D01*
G03X0044500Y0015000I0000000J0001000D01*
G01X0005500Y0007000D02*
G03X0007000Y0005500I0001500J0000000D01*
G03X0008500Y0007000I0000000J0001500D01*
G03X0007000Y0008500I0001500J0000000D01*
G03X0005500Y0007000I0000000J0001500D01*
G01X0010500Y0008000D02*
G03X0012000Y0006500I0001500J0000000D01*
G03X0013500Y0008000I0000000J0001500D01*
G03X0012000Y0009500I0001500J0000000D01*
G03X0010500Y0008000I0000000J0001500D01*
G01X0024250Y0029000D02*
G03X0026000Y0027250I0001750J0000000D01*
G03X0027750Y0029000I0000000J0001750D01*
G03X0026000Y0030750I0001750J0000000D01*
G03X0024250Y0029000I0000000J0001750D01*
G01X0002500Y0007000D02*
G03X0003500Y0006000I0001000J0000000D01*
G03X0004500Y0007000I0000000J0001000D01*
G03X0003500Y0008000I0001000J0000000D01*
G03X0002500Y0007000I0000000J0001000D01*
G01X0011500Y0016000D02*
G03X0012500Y0015000I0001000J0000000D01*
G03X0013500Y0016000I0000000J0001000D01*
G03X0012500Y0017000I0001000J0000000D01*
G03X0011500Y0016000I0000000J0001000D01*
G03X0012500Y0015000I0001000J0000000D01*
G03X0013500Y0016000I0000000J0001000D01*
G03X0012500Y0017000I0001000J0000000D01*
G03X0011500Y0016000I0000000J0001000D01*
G54D28*
G01X0003442Y0016583D02*
X0003275D01*
X0003358D02*
Y0017083D01*
X0003275Y0017000D01*
X0002950Y0017083D02*
Y0016667D01*
X0002908Y0016583D01*
X0002783Y0016833D01*
Y0016917D02*
Y0016833D01*
X0002658Y0016583D01*
X0002617Y0016667D01*
Y0017083D01*
X0002375Y0017000D02*
X0002333Y0017083D01*
X0002083D01*
X0002042Y0017000D01*
Y0016917D01*
X0002083Y0016833D01*
X0002333D01*
X0002375Y0016750D01*
Y0016667D01*
X0002333Y0016583D01*
X0002083D01*
X0002042Y0016667D01*
X0015400Y0028483D02*
X0015233D01*
X0015317D02*
Y0028983D01*
X0015233Y0028900D01*
X0014575Y0028733D02*
X0014825D01*
X0014908Y0028817D01*
Y0028900D01*
X0014825Y0028983D01*
X0014575D01*
Y0028483D01*
X0014042Y0028650D02*
Y0028567D01*
X0014083Y0028483D01*
X0014250D01*
X0014292Y0028567D01*
Y0028983D01*
X0014333D02*
X0014167D01*
M02*
