*
G04 Mass Parameters ***
*
G04 Image ***
*
%INF:\ELECTRONIC\2015\PROJECTS\40. MOUSE WITH KEYBOARD\SCH\VER1\M&KB.AST*%
%ICAS*%
%MOIN*%
%IPPOS*%
%ASAXBY*%
G74*%FSLAN2X34Y34*%
*
G04 Aperture Definitions ***
*
%ADD10C,0.0520*%
%ADD11R,0.0520X0.0520*%
%ADD12C,0.0620*%
%ADD13C,0.0550*%
%ADD14R,0.0550X0.0550*%
%ADD15C,0.0450*%
%ADD16R,0.0450X0.0450*%
%ADD17R,0.1400X0.0600*%
%ADD18R,0.0600X0.1400*%
%ADD19C,0.0710*%
%ADD20R,0.0710X0.0710*%
%ADD21C,0.0580*%
%ADD22R,0.0580X0.0580*%
%ADD23C,0.0250*%
%ADD24C,0.0550*%
%ADD25C,0.0670*%
%ADD26C,0.0600*%
%ADD27C,0.0080*%
%ADD28C,0.0100*%
%ADD29C,0.0500*%
*
G04 Plot Data ***
*
G54D27*
G01X0040763Y0027938D02*
X0040819Y0027883D01*
X0040930D01*
X0040985Y0027938D01*
Y0027994D01*
X0040874Y0028105D01*
X0040985Y0028216D01*
X0040763D01*
X0040575D02*
Y0027938D01*
X0040548Y0027883D01*
X0040381D01*
X0040353Y0027938D01*
Y0028216D01*
X0042642Y0026883D02*
Y0027216D01*
X0042614Y0026883D02*
X0042781D01*
X0042837Y0026938D01*
Y0026994D01*
X0042809Y0027049D01*
X0042642D02*
X0042809D01*
X0042837Y0027105D01*
Y0027160D01*
X0042781Y0027216D01*
X0042614D01*
X0042232Y0027049D02*
X0042399D01*
X0042427Y0026994D01*
Y0026938D01*
X0042399Y0026883D01*
X0042232D01*
X0042204Y0026938D01*
Y0026994D01*
X0042315Y0027216D01*
X0041822Y0027049D02*
X0041989D01*
X0042017Y0026994D01*
Y0026938D01*
X0041989Y0026883D01*
X0041822D01*
X0041794Y0026938D01*
Y0026994D01*
X0041905Y0027216D01*
X0041468Y0026883D02*
X0041412Y0026938D01*
X0041384Y0026994D01*
Y0027105D01*
X0041412Y0027160D01*
X0041468Y0027216D01*
X0041523D01*
X0041579Y0027160D01*
X0041607Y0027105D01*
Y0026994D01*
X0041579Y0026938D01*
X0041523Y0026883D01*
X0041468D01*
X0041197Y0026994D02*
X0040974D01*
X0041085Y0027216D01*
X0041141D01*
Y0026883D01*
X0040592D02*
Y0027216D01*
X0040564Y0026883D02*
X0040731D01*
X0040787Y0026994D01*
Y0027105D01*
X0040731Y0027216D01*
X0040564D01*
X0040377Y0026938D02*
X0040349Y0026883D01*
X0040182D01*
X0040154Y0026938D01*
Y0027160D01*
X0040182Y0027216D01*
X0040349D01*
X0040377Y0027160D01*
X0012639Y0016558D02*
X0012417D01*
X0012639Y0016780D01*
Y0016835D01*
X0012612Y0016891D01*
X0012445D01*
X0012417Y0016835D01*
X0012229Y0016613D02*
X0012202Y0016558D01*
X0012035D01*
X0012007Y0016613D01*
Y0016835D01*
X0012035Y0016891D01*
X0012202D01*
X0012229Y0016835D01*
X0013455Y0015243D02*
X0013289D01*
Y0015076D02*
Y0015410D01*
X0013511D01*
X0013101D02*
Y0015076D01*
X0013045Y0015132D01*
X0012934Y0015354D01*
X0012879Y0015410D01*
Y0015076D01*
X0012552D02*
X0012496Y0015132D01*
X0012469Y0015188D01*
Y0015299D01*
X0012496Y0015354D01*
X0012552Y0015410D01*
X0012608D01*
X0012663Y0015354D01*
X0012691Y0015299D01*
Y0015188D01*
X0012663Y0015132D01*
X0012608Y0015076D01*
X0012552D01*
X0012142D02*
X0012086Y0015132D01*
X0012059Y0015188D01*
Y0015299D01*
X0012086Y0015354D01*
X0012142Y0015410D01*
X0012198D01*
X0012253Y0015354D01*
X0012281Y0015299D01*
Y0015188D01*
X0012253Y0015132D01*
X0012198Y0015076D01*
X0012142D01*
X0011871D02*
X0011760D01*
X0011815D02*
Y0015410D01*
X0011760Y0015354D01*
X0014865Y0029432D02*
X0014754D01*
X0014809D02*
Y0029766D01*
X0014754Y0029710D01*
X0014510Y0029766D02*
Y0029488D01*
X0014483Y0029432D01*
X0014316D01*
X0014288Y0029488D01*
Y0029766D01*
X0016226Y0030663D02*
X0016254Y0030608D01*
X0016421D01*
X0016449Y0030663D01*
Y0030774D01*
X0016393Y0030830D01*
X0016226D01*
Y0030941D01*
X0016449D01*
X0015900Y0030608D02*
X0015844Y0030663D01*
X0015816Y0030719D01*
Y0030830D01*
X0015844Y0030885D01*
X0015900Y0030941D01*
X0015955D01*
X0016011Y0030885D01*
X0016039Y0030830D01*
Y0030719D01*
X0016011Y0030663D01*
X0015955Y0030608D01*
X0015900D01*
X0015601Y0030774D02*
X0015629Y0030830D01*
Y0030885D01*
X0015601Y0030941D01*
X0015434D01*
X0015406Y0030885D01*
Y0030830D01*
X0015434Y0030774D01*
X0015601D01*
X0015629Y0030719D01*
Y0030663D01*
X0015601Y0030608D01*
X0015434D01*
X0015406Y0030663D01*
Y0030719D01*
X0015434Y0030774D01*
X0015052Y0030608D02*
X0015219Y0030941D01*
X0014996D01*
X0014809Y0030608D02*
Y0030941D01*
X0014753Y0030885D01*
X0014698Y0030774D01*
X0014642Y0030885D01*
X0014586Y0030941D01*
Y0030608D01*
X0014399D02*
X0014204D01*
Y0030941D01*
X0004959Y0010433D02*
X0004848D01*
X0004903D02*
Y0010766D01*
X0004848Y0010710D01*
X0004521Y0010599D02*
X0004604Y0010433D01*
X0004382Y0010599D02*
X0004549D01*
X0004604Y0010655D01*
Y0010710D01*
X0004549Y0010766D01*
X0004382D01*
Y0010433D01*
X0005108Y0009451D02*
X0005052Y0009507D01*
X0005024Y0009563D01*
Y0009674D01*
X0005052Y0009729D01*
X0005108Y0009785D01*
X0005163D01*
X0005219Y0009729D01*
X0005247Y0009674D01*
Y0009563D01*
X0005219Y0009507D01*
X0005163Y0009451D01*
X0005108D01*
X0004670D02*
X0004837Y0009785D01*
X0004614D01*
X0004427Y0009563D02*
X0004204D01*
X0004315Y0009785D01*
X0004371D01*
Y0009451D01*
X0015445Y0002724D02*
X0015612D01*
X0015639Y0002669D01*
Y0002613D01*
X0015612Y0002558D01*
X0015445D01*
X0015417Y0002613D01*
Y0002669D01*
X0015528Y0002891D01*
X0015229Y0002613D02*
X0015202Y0002558D01*
X0015035D01*
X0015007Y0002613D01*
Y0002835D01*
X0015035Y0002891D01*
X0015202D01*
X0015229Y0002835D01*
X0016045Y0001243D02*
X0015879D01*
Y0001076D02*
Y0001410D01*
X0016101D01*
X0015469Y0001243D02*
X0015635D01*
X0015691Y0001299D01*
Y0001354D01*
X0015635Y0001410D01*
X0015469D01*
Y0001076D01*
X0015059Y0001132D02*
X0015086Y0001076D01*
X0015253D01*
X0015281Y0001132D01*
Y0001243D01*
X0015225Y0001299D01*
X0015059D01*
Y0001410D01*
X0015281D01*
X0014871Y0001076D02*
X0014760D01*
X0014815D02*
Y0001410D01*
X0014760Y0001354D01*
X0037470Y0007444D02*
X0037248D01*
X0037359Y0007666D01*
X0037415D01*
Y0007333D01*
X0037060Y0007666D02*
Y0007388D01*
X0037033Y0007333D01*
X0036866D01*
X0036838Y0007388D01*
Y0007666D01*
X0040505Y0006444D02*
X0040283D01*
X0040505Y0006333D02*
Y0006499D01*
X0040422Y0006666D01*
X0040366D01*
X0040283Y0006499D01*
Y0006333D01*
X0039929D02*
X0040095Y0006666D01*
X0039873D01*
X0039519Y0006333D02*
X0039685Y0006666D01*
X0039463D01*
X0039247Y0006499D02*
X0039275Y0006555D01*
Y0006610D01*
X0039247Y0006666D01*
X0039081D01*
X0039053Y0006610D01*
Y0006555D01*
X0039081Y0006499D01*
X0039247D01*
X0039275Y0006444D01*
Y0006388D01*
X0039247Y0006333D01*
X0039081D01*
X0039053Y0006388D01*
Y0006444D01*
X0039081Y0006499D01*
X0038810D02*
X0038643D01*
Y0006333D02*
Y0006666D01*
X0038865D01*
X0038261Y0006499D02*
X0038427D01*
X0038455Y0006444D01*
Y0006388D01*
X0038427Y0006333D01*
X0038261D01*
X0038233Y0006388D01*
Y0006444D01*
X0038344Y0006666D01*
X0038045Y0006333D02*
X0037934D01*
X0037990D02*
Y0006666D01*
X0037934Y0006610D01*
X0037691Y0006388D02*
X0037663Y0006333D01*
X0037496D01*
X0037469Y0006388D01*
Y0006610D01*
X0037496Y0006666D01*
X0037663D01*
X0037691Y0006610D01*
X0037281Y0006333D02*
X0037170D01*
X0037225D02*
Y0006666D01*
X0037281D02*
X0037170D01*
X0036704Y0006499D02*
X0036871D01*
X0036927Y0006555D01*
Y0006610D01*
X0036871Y0006666D01*
X0036704D01*
Y0006333D01*
X0007959Y0021558D02*
X0007848D01*
X0007903D02*
Y0021891D01*
X0007848Y0021835D01*
X0007410Y0021558D02*
Y0021891D01*
X0007382Y0021558D02*
X0007549D01*
X0007604Y0021669D01*
Y0021780D01*
X0007549Y0021891D01*
X0007382D01*
X0009254Y0020326D02*
X0009421Y0020660D01*
X0009199D01*
X0008872Y0020326D02*
X0008816Y0020382D01*
X0008789Y0020438D01*
Y0020549D01*
X0008816Y0020604D01*
X0008872Y0020660D01*
X0008928D01*
X0008983Y0020604D01*
X0009011Y0020549D01*
Y0020438D01*
X0008983Y0020382D01*
X0008928Y0020326D01*
X0008872D01*
X0008462D02*
X0008406Y0020382D01*
X0008379Y0020438D01*
Y0020549D01*
X0008406Y0020604D01*
X0008462Y0020660D01*
X0008518D01*
X0008573Y0020604D01*
X0008601Y0020549D01*
Y0020438D01*
X0008573Y0020382D01*
X0008518Y0020326D01*
X0008462D01*
X0008191Y0020438D02*
X0007969D01*
X0008080Y0020660D01*
X0008135D01*
Y0020326D01*
X0007781Y0020660D02*
Y0020326D01*
X0007725Y0020382D01*
X0007614Y0020604D01*
X0007559Y0020660D01*
Y0020326D01*
X0007371D02*
X0007260D01*
X0007315D02*
Y0020660D01*
X0007260Y0020604D01*
X0003639Y0022669D02*
X0003417D01*
X0003528Y0022891D01*
X0003584D01*
Y0022558D01*
X0003229Y0022613D02*
X0003202Y0022558D01*
X0003035D01*
X0003007Y0022613D01*
Y0022835D01*
X0003035Y0022891D01*
X0003202D01*
X0003229Y0022835D01*
X0004344Y0021243D02*
X0004177D01*
Y0021076D02*
Y0021410D01*
X0004400D01*
X0003990D02*
Y0021132D01*
X0003962Y0021076D01*
X0003795D01*
X0003767Y0021132D01*
Y0021410D01*
X0003580Y0021076D02*
X0003469D01*
X0003524D02*
Y0021410D01*
X0003469Y0021354D01*
X0003170Y0021076D02*
X0003225D01*
Y0021132D01*
X0003170D01*
Y0021076D01*
X0002788D02*
X0002732Y0021132D01*
X0002704Y0021188D01*
Y0021299D01*
X0002732Y0021354D01*
X0002788Y0021410D01*
X0002843D01*
X0002899Y0021354D01*
X0002927Y0021299D01*
Y0021188D01*
X0002899Y0021132D01*
X0002843Y0021076D01*
X0002788D01*
X0010792Y0003488D02*
X0010848Y0003433D01*
X0010959D01*
X0011014Y0003488D01*
Y0003544D01*
X0010903Y0003655D01*
X0011014Y0003766D01*
X0010792D01*
X0010521Y0003599D02*
X0010604Y0003433D01*
X0010382Y0003599D02*
X0010549D01*
X0010604Y0003655D01*
Y0003710D01*
X0010549Y0003766D01*
X0010382D01*
Y0003433D01*
X0011191Y0002451D02*
X0011024Y0002618D01*
X0011191Y0002785D01*
X0010969D02*
Y0002451D01*
X0010642D02*
X0010586Y0002507D01*
X0010559Y0002563D01*
Y0002674D01*
X0010586Y0002729D01*
X0010642Y0002785D01*
X0010698D01*
X0010753Y0002729D01*
X0010781Y0002674D01*
Y0002563D01*
X0010753Y0002507D01*
X0010698Y0002451D01*
X0010642D01*
X0010371D02*
X0010260D01*
X0010315D02*
Y0002785D01*
X0010260Y0002729D01*
X0045473Y0015558D02*
X0045639Y0015891D01*
X0045417D01*
X0045229Y0015613D02*
X0045202Y0015558D01*
X0045035D01*
X0045007Y0015613D01*
Y0015835D01*
X0045035Y0015891D01*
X0045202D01*
X0045229Y0015835D01*
X0046045Y0014243D02*
X0045879D01*
Y0014076D02*
Y0014410D01*
X0046101D01*
X0045469Y0014243D02*
X0045635D01*
X0045691Y0014299D01*
Y0014354D01*
X0045635Y0014410D01*
X0045469D01*
Y0014076D01*
X0045059Y0014132D02*
X0045086Y0014076D01*
X0045253D01*
X0045281Y0014132D01*
Y0014243D01*
X0045225Y0014299D01*
X0045059D01*
Y0014410D01*
X0045281D01*
X0044871Y0014076D02*
X0044760D01*
X0044815D02*
Y0014410D01*
X0044760Y0014354D01*
X0007014Y0007683D02*
X0006792D01*
X0007014Y0007905D01*
Y0007960D01*
X0006987Y0008016D01*
X0006820D01*
X0006792Y0007960D01*
X0006410Y0007683D02*
Y0008016D01*
X0006382Y0007683D02*
X0006549D01*
X0006604Y0007794D01*
Y0007905D01*
X0006549Y0008016D01*
X0006382D01*
X0007038Y0006368D02*
X0007122Y0006201D01*
X0006899Y0006368D02*
X0007066D01*
X0007122Y0006424D01*
Y0006479D01*
X0007066Y0006535D01*
X0006899D01*
Y0006201D01*
X0006712Y0006535D02*
Y0006257D01*
X0006684Y0006201D01*
X0006600Y0006368D01*
Y0006424D02*
Y0006368D01*
X0006517Y0006201D01*
X0006489Y0006257D01*
Y0006535D01*
X0006079Y0006368D02*
X0006246D01*
X0006302Y0006424D01*
Y0006479D01*
X0006246Y0006535D01*
X0006079D01*
Y0006201D01*
X0020959Y0002558D02*
X0020848D01*
X0020903D02*
Y0002891D01*
X0020848Y0002835D01*
X0020493Y0002558D02*
Y0002724D01*
X0020604Y0002891D02*
X0020521Y0002724D01*
X0020465D01*
X0020382Y0002891D01*
X0021219Y0001326D02*
X0021052D01*
X0021219Y0001660D01*
X0021052D01*
X0020837Y0001326D02*
Y0001660D01*
X0020781Y0001604D01*
X0020725Y0001493D01*
X0020670Y0001604D01*
X0020614Y0001660D01*
Y0001326D01*
X0020427Y0001438D02*
X0020204D01*
X0020315Y0001660D01*
X0020371D01*
Y0001326D01*
X0011792Y0008738D02*
X0011848Y0008683D01*
X0011959D01*
X0012014Y0008738D01*
Y0008794D01*
X0011903Y0008905D01*
X0012014Y0009016D01*
X0011792D01*
X0011604Y0008738D02*
X0011577Y0008683D01*
X0011410D01*
X0011382Y0008738D01*
Y0008960D01*
X0011410Y0009016D01*
X0011577D01*
X0011604Y0008960D01*
X0012886Y0007368D02*
X0012719D01*
Y0007201D02*
Y0007535D01*
X0012942D01*
X0012532D02*
Y0007257D01*
X0012504Y0007201D01*
X0012337D01*
X0012309Y0007257D01*
Y0007535D01*
X0011983Y0007201D02*
X0011927Y0007257D01*
X0011899Y0007313D01*
Y0007424D01*
X0011927Y0007479D01*
X0011983Y0007535D01*
X0012038D01*
X0012094Y0007479D01*
X0012122Y0007424D01*
Y0007313D01*
X0012094Y0007257D01*
X0012038Y0007201D01*
X0011983D01*
X0011712D02*
X0011489D01*
X0011712Y0007424D01*
Y0007479D01*
X0011684Y0007535D01*
X0011517D01*
X0011489Y0007479D01*
X0011302Y0007201D02*
X0011079D01*
X0011302Y0007424D01*
Y0007479D01*
X0011274Y0007535D01*
X0011107D01*
X0011079Y0007479D01*
X0025959Y0029683D02*
X0025848D01*
X0025903D02*
Y0030016D01*
X0025848Y0029960D01*
X0025604Y0029738D02*
X0025577Y0029683D01*
X0025410D01*
X0025382Y0029738D01*
Y0029960D01*
X0025410Y0030016D01*
X0025577D01*
X0025604Y0029960D01*
X0029124Y0028201D02*
X0029179Y0028313D01*
Y0028424D01*
X0029124Y0028535D01*
X0028880D02*
Y0028424D01*
X0028769Y0028201D01*
X0028658Y0028424D01*
Y0028535D01*
X0028248Y0028257D02*
X0028276Y0028201D01*
X0028442D01*
X0028470Y0028257D01*
Y0028368D01*
X0028415Y0028424D01*
X0028248D01*
Y0028535D01*
X0028470D01*
X0028060Y0028201D02*
X0027838D01*
X0028060Y0028424D01*
Y0028479D01*
X0028032Y0028535D01*
X0027866D01*
X0027838Y0028479D01*
X0027650Y0028201D02*
X0027595Y0028313D01*
Y0028424D01*
X0027650Y0028535D01*
X0027240Y0028368D02*
X0027074D01*
Y0028201D02*
Y0028535D01*
X0027296D01*
X0026886D02*
Y0028257D01*
X0026858Y0028201D01*
X0026691D01*
X0026664Y0028257D01*
Y0028535D01*
X0026337Y0028201D02*
X0026281Y0028257D01*
X0026254Y0028313D01*
Y0028424D01*
X0026281Y0028479D01*
X0026337Y0028535D01*
X0026393D01*
X0026448Y0028479D01*
X0026476Y0028424D01*
Y0028313D01*
X0026448Y0028257D01*
X0026393Y0028201D01*
X0026337D01*
X0025927D02*
X0025871Y0028257D01*
X0025844Y0028313D01*
Y0028424D01*
X0025871Y0028479D01*
X0025927Y0028535D01*
X0025983D01*
X0026038Y0028479D01*
X0026066Y0028424D01*
Y0028313D01*
X0026038Y0028257D01*
X0025983Y0028201D01*
X0025927D01*
X0025517D02*
X0025461Y0028257D01*
X0025434Y0028313D01*
Y0028424D01*
X0025461Y0028479D01*
X0025517Y0028535D01*
X0025573D01*
X0025628Y0028479D01*
X0025656Y0028424D01*
Y0028313D01*
X0025628Y0028257D01*
X0025573Y0028201D01*
X0025517D01*
X0025246D02*
X0025135D01*
X0025190D02*
Y0028535D01*
X0025135Y0028479D01*
X0007516Y0027816D02*
X0007272D01*
X0007516Y0028060D01*
Y0028121D01*
X0007485Y0028182D01*
X0007302D01*
X0007272Y0028121D01*
X0007081Y0028182D02*
Y0027877D01*
X0007050Y0027816D01*
X0006867D01*
X0006837Y0027877D01*
Y0028182D01*
X0009954Y0026974D02*
X0010120D01*
X0010176Y0027030D01*
Y0027085D01*
X0010120Y0027141D01*
X0009954D01*
Y0026808D01*
X0009710Y0026974D02*
X0009544D01*
Y0026808D02*
Y0027141D01*
X0009766D01*
X0009217Y0026808D02*
X0009161Y0026863D01*
X0009134Y0026919D01*
Y0027030D01*
X0009161Y0027085D01*
X0009217Y0027141D01*
X0009273D01*
X0009328Y0027085D01*
X0009356Y0027030D01*
Y0026919D01*
X0009328Y0026863D01*
X0009273Y0026808D01*
X0009217D01*
X0008946D02*
X0008835D01*
X0008890D02*
Y0027141D01*
X0008835Y0027085D01*
X0008369Y0026863D02*
X0008397Y0026808D01*
X0008564D01*
X0008592Y0026863D01*
Y0026974D01*
X0008536Y0027030D01*
X0008369D01*
Y0027141D01*
X0008592D01*
X0008182Y0026919D02*
X0007959D01*
X0008070Y0027141D01*
X0008126D01*
Y0026808D01*
X0007744Y0026974D02*
X0007772Y0027030D01*
Y0027085D01*
X0007744Y0027141D01*
X0007577D01*
X0007549Y0027085D01*
Y0027030D01*
X0007577Y0026974D01*
X0007744D01*
X0007772Y0026919D01*
Y0026863D01*
X0007744Y0026808D01*
X0007577D01*
X0007549Y0026863D01*
Y0026919D01*
X0007577Y0026974D01*
X0007362Y0026808D02*
Y0027141D01*
X0007306Y0027085D01*
X0007250Y0026974D01*
X0007195Y0027085D01*
X0007139Y0027141D01*
Y0026808D01*
X0006896Y0026974D02*
X0006729D01*
X0006952Y0026808D02*
X0006729D01*
Y0027141D01*
X0006952D01*
X0028248Y0017388D02*
X0028276Y0017333D01*
X0028443D01*
X0028470Y0017388D01*
Y0017499D01*
X0028415Y0017555D01*
X0028248D01*
Y0017666D01*
X0028470D01*
X0028060D02*
Y0017388D01*
X0028033Y0017333D01*
X0027866D01*
X0027838Y0017388D01*
Y0017666D01*
X0031207Y0016444D02*
X0030984D01*
X0031207Y0016333D02*
Y0016499D01*
X0031123Y0016666D01*
X0031068D01*
X0030984Y0016499D01*
Y0016333D01*
X0030769Y0016499D02*
X0030797Y0016555D01*
Y0016610D01*
X0030769Y0016666D01*
X0030602D01*
X0030574Y0016610D01*
Y0016555D01*
X0030602Y0016499D01*
X0030769D01*
X0030797Y0016444D01*
Y0016388D01*
X0030769Y0016333D01*
X0030602D01*
X0030574Y0016388D01*
Y0016444D01*
X0030602Y0016499D01*
X0030387Y0016333D02*
X0030164D01*
X0030387Y0016555D01*
Y0016610D01*
X0030359Y0016666D01*
X0030192D01*
X0030164Y0016610D01*
X0029782Y0016499D02*
X0029949D01*
X0029977Y0016444D01*
Y0016388D01*
X0029949Y0016333D01*
X0029782D01*
X0029754Y0016388D01*
Y0016444D01*
X0029865Y0016666D01*
X0029567Y0016333D02*
X0029400Y0016499D01*
X0029567Y0016666D01*
X0029344D02*
Y0016333D01*
X0029157D02*
X0028934D01*
X0029157Y0016555D01*
Y0016610D01*
X0029129Y0016666D01*
X0028962D01*
X0028934Y0016610D01*
X0028719Y0016499D02*
X0028747Y0016555D01*
Y0016610D01*
X0028719Y0016666D01*
X0028552D01*
X0028524Y0016610D01*
Y0016555D01*
X0028552Y0016499D01*
X0028719D01*
X0028747Y0016444D01*
Y0016388D01*
X0028719Y0016333D01*
X0028552D01*
X0028524Y0016388D01*
Y0016444D01*
X0028552Y0016499D01*
X0028225Y0016333D02*
Y0016666D01*
X0028337D02*
X0028114D01*
X0027927Y0016499D02*
X0027704D01*
X0027927Y0016333D02*
Y0016666D01*
X0027704Y0016333D02*
Y0016666D01*
X0019014Y0011433D02*
X0018792D01*
X0019014Y0011655D01*
Y0011710D01*
X0018987Y0011766D01*
X0018820D01*
X0018792Y0011710D01*
X0018521Y0011599D02*
X0018604Y0011433D01*
X0018382Y0011599D02*
X0018549D01*
X0018604Y0011655D01*
Y0011710D01*
X0018549Y0011766D01*
X0018382D01*
Y0011433D01*
X0018781Y0010451D02*
X0018614Y0010618D01*
X0018781Y0010785D01*
X0018559D02*
Y0010451D01*
X0018371D02*
X0018260D01*
X0018315D02*
Y0010785D01*
X0018260Y0010729D01*
X0003417Y0007613D02*
X0003445Y0007558D01*
X0003612D01*
X0003639Y0007613D01*
Y0007724D01*
X0003584Y0007780D01*
X0003417D01*
Y0007891D01*
X0003639D01*
X0003229Y0007613D02*
X0003202Y0007558D01*
X0003035D01*
X0003007Y0007613D01*
Y0007835D01*
X0003035Y0007891D01*
X0003202D01*
X0003229Y0007835D01*
X0003635Y0006243D02*
X0003469D01*
Y0006076D02*
Y0006410D01*
X0003691D01*
X0003281D02*
Y0006132D01*
X0003253Y0006076D01*
X0003086D01*
X0003059Y0006132D01*
Y0006410D01*
X0002871Y0006076D02*
X0002760D01*
X0002815D02*
Y0006410D01*
X0002760Y0006354D01*
X0017050Y0030750D02*
Y0029300D01*
X0012950D01*
Y0030750D01*
X0013700Y0031500D01*
X0016300D01*
X0017050Y0030750D01*
X0006500Y0010000D02*
X0006125D01*
Y0010625D02*
Y0009375D01*
X0003875D01*
Y0010625D01*
X0006125D01*
X0003500Y0010000D02*
X0003875D01*
X0027000Y0006500D02*
Y0007500D01*
Y0009500D01*
X0048000D01*
Y0004500D01*
X0027000D01*
Y0006500D01*
X0027250D01*
Y0007500D01*
X0027000D01*
X0007100Y0020600D02*
X0008900D01*
Y0021400D01*
X0007100D01*
Y0020600D01*
X0007600D02*
Y0021400D01*
X0006450Y0021000D02*
X0007100D01*
X0009550D02*
X0008900D01*
X0012500Y0003000D02*
X0012125D01*
Y0003625D02*
Y0002375D01*
X0009875D01*
Y0003625D01*
X0012125D01*
X0009500Y0003000D02*
X0009875D01*
X0019000Y0001250D02*
X0023000D01*
Y0002750D01*
X0019000D01*
Y0001250D01*
X0003500Y0028000D02*
X0003750D01*
Y0027000D01*
X0003500D01*
X0011500Y0026500D02*
Y0028500D01*
X0003500D01*
Y0026500D01*
X0011500D01*
X0018000Y0016500D02*
Y0017500D01*
Y0019500D01*
X0039000D01*
Y0014500D01*
X0018000D01*
Y0016500D01*
X0018250D01*
Y0017500D01*
X0018000D01*
X0020500Y0011000D02*
X0020125D01*
Y0011625D02*
Y0010375D01*
X0017875D01*
Y0011625D01*
X0020125D01*
X0017500Y0011000D02*
X0017875D01*
X0037375Y0027000D02*
Y0028000D01*
Y0028500D01*
X0044625D01*
Y0026500D01*
X0037375D01*
Y0027000D01*
X0037625D01*
Y0028000D01*
X0037375D01*
X0017050Y0030050D02*
X0016550D01*
X0012950D02*
X0013450D01*
G01X0005500Y0007000D02*
G03X0007000Y0005500I0001500J0000000D01*
G03X0008500Y0007000I0000000J0001500D01*
G03X0007000Y0008500I0001500J0000000D01*
G03X0005500Y0007000I0000000J0001500D01*
G01X0010500Y0008000D02*
G03X0012000Y0006500I0001500J0000000D01*
G03X0013500Y0008000I0000000J0001500D01*
G03X0012000Y0009500I0001500J0000000D01*
G03X0010500Y0008000I0000000J0001500D01*
G01X0024250Y0029000D02*
G03X0026000Y0027250I0001750J0000000D01*
G03X0027750Y0029000I0000000J0001750D01*
G03X0026000Y0030750I0001750J0000000D01*
G03X0024250Y0029000I0000000J0001750D01*
G01X0002500Y0007000D02*
G03X0003500Y0006000I0001000J0000000D01*
G03X0004500Y0007000I0000000J0001000D01*
G03X0003500Y0008000I0001000J0000000D01*
G03X0002500Y0007000I0000000J0001000D01*
G54D28*
G01X0016592Y0027442D02*
X0016550Y0027358D01*
X0016300D01*
X0016258Y0027442D01*
Y0027775D01*
X0016300Y0027858D01*
X0016550D01*
X0016592Y0027775D01*
X0015725Y0027358D02*
Y0027858D01*
X0015683Y0027358D02*
X0015933D01*
X0016017Y0027525D01*
Y0027692D01*
X0015933Y0027858D01*
X0015683D01*
X0015442D02*
Y0027692D01*
X0015275Y0027358D01*
X0015108Y0027692D01*
Y0027858D01*
X0014867Y0027358D02*
X0014533D01*
X0014867Y0027692D01*
Y0027775D01*
X0014825Y0027858D01*
X0014575D01*
X0014533Y0027775D01*
X0014292Y0027358D02*
X0014125D01*
X0014208D02*
Y0027858D01*
X0014125Y0027775D01*
X0015400Y0028483D02*
X0015233D01*
X0015317D02*
Y0028983D01*
X0015233Y0028900D01*
X0014575Y0028733D02*
X0014825D01*
X0014908Y0028817D01*
Y0028900D01*
X0014825Y0028983D01*
X0014575D01*
Y0028483D01*
X0014042Y0028650D02*
Y0028567D01*
X0014083Y0028483D01*
X0014250D01*
X0014292Y0028567D01*
Y0028983D01*
X0014333D02*
X0014167D01*
X0004675Y0015958D02*
Y0015542D01*
X0004633Y0015458D01*
X0004508Y0015708D01*
Y0015792D02*
Y0015708D01*
X0004383Y0015458D01*
X0004342Y0015542D01*
Y0015958D01*
X0004100Y0015875D02*
X0004058Y0015958D01*
X0003808D01*
X0003767Y0015875D01*
Y0015792D01*
X0003808Y0015708D01*
X0004058D01*
X0004100Y0015625D01*
Y0015542D01*
X0004058Y0015458D01*
X0003808D01*
X0003767Y0015542D01*
X0003525Y0015292D02*
X0003192D01*
X0002617Y0015708D02*
X0002867D01*
X0002950Y0015792D01*
Y0015875D01*
X0002867Y0015958D01*
X0002617D01*
Y0015458D01*
X0002375Y0015958D02*
Y0015542D01*
X0002333Y0015458D01*
X0002083D01*
X0002042Y0015542D01*
Y0015958D01*
X0003442Y0016583D02*
X0003275D01*
X0003358D02*
Y0017083D01*
X0003275Y0017000D01*
X0002950Y0017083D02*
Y0016667D01*
X0002908Y0016583D01*
X0002783Y0016833D01*
Y0016917D02*
Y0016833D01*
X0002658Y0016583D01*
X0002617Y0016667D01*
Y0017083D01*
X0002375Y0017000D02*
X0002333Y0017083D01*
X0002083D01*
X0002042Y0017000D01*
Y0016917D01*
X0002083Y0016833D01*
X0002333D01*
X0002375Y0016750D01*
Y0016667D01*
X0002333Y0016583D01*
X0002083D01*
X0002042Y0016667D01*
G54D29*
G01X0000000Y0000000D02*
X0050250D01*
Y0033500D01*
X0000000D01*
Y0000000D01*
G54D10*
X0046000Y0015000D03*
X0016000Y0002000D03*
X0004000Y0007000D03*
Y0022000D03*
X0013000Y0016000D03*
X0027000Y0029000D03*
G54D11*
X0003000Y0007000D03*
X0025000Y0029000D03*
G54D13*
X0020000Y0002000D03*
X0022000D03*
X0009000Y0003000D03*
X0013000D03*
X0017000Y0011000D03*
X0021000D03*
X0003000Y0010000D03*
X0007000D03*
X0008000Y0007000D03*
X0013000Y0008000D03*
G54D14*
X0006000Y0007000D03*
X0011000Y0008000D03*
G54D15*
X0010000Y0021000D03*
G54D16*
X0006000D03*
G54D19*
X0015000Y0030000D03*
X0016000D03*
G54D20*
X0014000D03*
G54D21*
X0020000Y0014000D03*
X0021000D03*
X0022000D03*
X0023000D03*
X0024000D03*
X0025000D03*
X0026000D03*
X0027000D03*
X0028000D03*
X0029000D03*
X0030000D03*
X0031000D03*
X0032000D03*
X0033000D03*
X0034000D03*
X0035000D03*
X0036000D03*
X0037000D03*
X0038000D03*
Y0020000D03*
X0037000D03*
X0036000D03*
X0035000D03*
X0034000D03*
X0033000D03*
X0032000D03*
X0031000D03*
X0030000D03*
X0029000D03*
X0028000D03*
X0027000D03*
X0026000D03*
X0025000D03*
X0024000D03*
X0023000D03*
X0022000D03*
X0021000D03*
X0020000D03*
X0019000D03*
X0029000Y0004000D03*
X0030000D03*
X0031000D03*
X0032000D03*
X0033000D03*
X0034000D03*
X0035000D03*
X0036000D03*
X0037000D03*
X0038000D03*
X0039000D03*
X0040000D03*
X0041000D03*
X0042000D03*
X0043000D03*
X0044000D03*
X0045000D03*
X0046000D03*
X0047000D03*
Y0010000D03*
X0046000D03*
X0045000D03*
X0044000D03*
X0043000D03*
X0042000D03*
X0041000D03*
X0040000D03*
X0039000D03*
X0038000D03*
X0037000D03*
X0036000D03*
X0035000D03*
X0034000D03*
X0033000D03*
X0032000D03*
X0031000D03*
X0030000D03*
X0029000D03*
X0028000D03*
X0039000Y0026000D03*
X0040000D03*
X0041000D03*
X0042000D03*
X0043000D03*
X0044000D03*
Y0029000D03*
X0043000D03*
X0042000D03*
X0041000D03*
X0040000D03*
X0039000D03*
X0038000D03*
X0005000Y0026000D03*
X0006000D03*
X0007000D03*
X0008000D03*
X0009000D03*
X0010000D03*
X0011000D03*
Y0029000D03*
X0010000D03*
X0009000D03*
X0008000D03*
X0007000D03*
X0006000D03*
X0005000D03*
X0004000D03*
G54D22*
X0019000Y0014000D03*
X0028000Y0004000D03*
X0038000Y0026000D03*
X0004000D03*
M02*
